PathFileType	4	(X/Y/Z)	C:/Users/beibeiliu/ov580/test_trc\sequence.1_training_dense_left.trc
DataRate	CameraRate	NumFrames	NumMarkers	Units	OrigDataRate	OrigDataStartFrame	OrigNumFrames
120	120	23	19	mm	120	130	345
Frame#	Time	ThumbCMC			ThumbMCP			ThumbIP			ThumbTip			IndexMCP			IndexPIP			IndexTip			MiddleMCP			MiddlePIP			MiddleTip			RingMCP			RingPIP			RingTip			PinkyMCP			PinkyPIP			PinkyTip			BackHand1			BackHand2			BackHand3	
		X0	Y0	Z0	X1	Y1	Z1	X2	Y2	Z2	X3	Y3	Z3	X4	Y4	Z4	X5	Y5	Z5	X6	Y6	Z6	X7	Y7	Z7	X8	Y8	Z8	X9	Y9	Z9	X10	Y10	Z10	X11	Y11	Z11	X12	Y12	Z12	X13	Y13	Z13	X14	Y14	Z14	X15	Y15	Z15	X16	Y16	Z16	X17	Y17	Z17	X18	Y18	Z18	
129	1.075	-179.393	29.422	12.0466	-154.03	13.5923	0.518437	-140.353	4.08904	-11.2016	-126.701	-1.61485	-18.2058	-164.423	9.59651	-49.9117	-150.129	-1.16701	-62.8056	-131.311	-15.6924	-77.712	-175.659	-10.52	-57.7331	-161.378	-28.0785	-68.3044	-146.498	-43.1081	-76.5647	-193.763	-25.2004	-48.9398	-178.509	-40.0022	-57.392	-163.169	-55.2338	-61.8221	-208.18	-30.8129	-35.788	-194.604	-47.4143	-45.5794	-186.926	-64.3892	-49.1332	-222.327	6.25462	-19.47	-230.539	14.6756	-1.85563	-204.424	31.3177	-11.753	
130	1.08333	-179.112	30.0912	10.8683	-152.695	17.824	4.84617	-140.213	6.35771	-10.57	-119.823	-0.238915	-19.1297	-161.137	10.8284	-48.6873	-144.054	-0.29633	-61.3937	-133.14	-13.4275	-71.9011	-174.26	-10.4149	-54.108	-157.785	-24.0427	-64.0429	-139.15	-41.5041	-72.58	-190.574	-23.1868	-46.006	-172.583	-38.3646	-54.0894	-154.741	-55.0166	-57.2773	-205.124	-36.4384	-36.1644	-194.849	-49.6348	-39.7982	-180.312	-65.046	-47.2215	-220.013	3.92812	-19.7166	-229.991	15.8923	-0.506272	-204.212	29.5779	-10.0156	
131	1.09167	-181.173	29.7071	13.9838	-154.626	18.331	4.29968	-136.421	8.99857	-6.69361	-121.967	1.89541	-14.6072	-159.972	12.3463	-45.0723	-142.212	0.537889	-57.541	-125.304	-10.4563	-68.6889	-170.266	-5.03109	-49.8347	-151.551	-25.4463	-62.8933	-135.84	-40.9203	-69.4962	-185.449	-25.4128	-44.3921	-167.765	-40.4	-52.4896	-149.634	-51.0356	-53.7896	-203.209	-36.1474	-31.2592	-189.448	-49.8182	-36.9214	-172.563	-62.4984	-43.1436	-215.317	4.6924	-16.5789	-225.928	17.4267	1.03626	-202.554	31.1238	-7.94416	
132	1.1	-179.584	32.2989	13.0928	-151.225	22.2114	7.53296	-134.922	11.8718	-6.14255	-117.91	7.86128	-12.9843	-154.143	12.7261	-45.7574	-135.67	3.24177	-56.0983	-122.382	-7.95297	-65.351	-166.614	-8.23297	-50.7048	-147.906	-17.7874	-59.4839	-131.82	-38.0298	-65.5557	-179.491	-21.1165	-42.3318	-164.61	-38.8269	-48.8114	-141.107	-49.7443	-50.9521	-193.257	-34.0772	-32.0748	-178.881	-48.4695	-37.6593	-164.603	-61.7534	-41.2939	-216.03	3.71809	-18.2337	-226.523	14.221	2.31447	-202.193	30.8435	-6.82484	
133	1.10833	-180.198	33.8023	14.4966	-151.976	25.0778	6.82813	-132.141	18.3012	-4.60955	-117.86	11.2888	-12.9047	-150.942	16.6743	-44.3787	-137.04	4.73606	-54.2245	-119.42	-7.80757	-65.5167	-164.741	-5.72869	-48.456	-144.057	-18.9773	-57.6313	-123.657	-37.5371	-62.9012	-177.225	-23.5077	-41.2309	-155.527	-36.3664	-47.3726	-137.963	-50.0114	-48.2902	-189.659	-36.3796	-30.7861	-175.131	-51.028	-33.4989	-159.484	-60.2567	-39.1702	-211.415	5.98968	-17.4729	-226.426	12.3493	0.06614	-203.784	32.2932	-7.74711	
134	1.11667	-180.396	37.2753	14.0159	-154.463	28.8074	10.0511	-131.851	20.9834	-4.09101	-115.096	17.7836	-10.428	-152.281	15.7671	-43.9582	-133.012	11.566	-52.9557	-115.624	0.562277	-62.4562	-158.391	-1.8742	-48.0604	-140.676	-17.0071	-55.2171	-119.298	-31.2096	-59.5133	-170.17	-18.9207	-40.4421	-153.721	-34.4749	-45.2928	-130.416	-47.2282	-46.0979	-188.747	-35.2472	-27.7621	-172.348	-47.0767	-31.3258	-155.129	-60.303	-36.9123	-209.575	2.50988	-16.9858	-220.438	13.446	-1.51376	-201	28.1908	-10.6906	
135	1.125	-177.69	40.8769	12.2434	-151.83	30.8886	6.80893	-131.478	25.6326	-1.73425	-111.076	25.0072	-7.32776	-149.542	21.3996	-42.8641	-128.493	10.6891	-54.2353	-109.867	2.43518	-62.3466	-152.973	-1.9327	-48.1286	-134.923	-11.5487	-54.4074	-114.437	-26.7779	-56.3828	-167.712	-16.6236	-39.3159	-147.852	-30.2389	-44.3156	-127.472	-39.8887	-44.0057	-183.1	-35.2853	-26.5329	-163.381	-44.2522	-32.6663	-145.988	-53.6363	-35.529	-206.935	2.64899	-16.4591	-223.413	11.6845	-2.18345	-199.497	29.216	-11.661	
136	1.13333	-180.701	40.3439	14.7	-151.986	36.7773	10.4686	-128.106	32.5784	-0.557845	-109.462	28.2966	-7.44911	-150.016	21.4315	-41.0113	-125.555	16.9466	-52.0613	-106.871	7.06776	-60.2965	-153.028	2.51863	-45.462	-131.692	-11.5033	-52.5598	-108.961	-21.1347	-53.5698	-161.576	-15.8448	-39.0352	-139.045	-29.08	-43.6202	-122.475	-38.3876	-42.2611	-173.811	-31.0027	-28.9558	-161.533	-44.7436	-27.9867	-143.49	-55.1834	-30.9206	-202.765	4.34713	-18.5062	-217.388	13.543	-3.00512	-199.141	32.7411	-11.1105	
137	1.14167	-180.528	41.7443	12.3204	-150.079	42.5001	12.6531	-130.326	36.8259	3.69371	-111.376	32.6563	-2.67142	-144.382	24.5787	-40.7149	-121.703	21.1485	-48.8687	-103.387	9.45436	-58.9083	-150.727	0.154888	-43.4171	-128.036	-7.64211	-49.3167	-101.487	-20.1519	-51.0458	-158.102	-16.304	-37.3684	-137.398	-25.5083	-40.7978	-118.125	-33.6533	-40.8818	-171.7	-27.6882	-26.5516	-152.389	-42.0969	-28.3216	-137.808	-50.9213	-31.8862	-200.346	6.8759	-19.0533	-217.951	9.05269	-3.96872	-198.238	30.9972	-10.5246	
138	1.15	-182.6	43.1091	14.9665	-150.088	41.8209	10.667	-127.195	41.1665	5.99558	-109.556	36.6706	-1.45238	-138.562	29.8261	-38.8218	-118.024	23.2057	-47.7911	-97.6678	17.7552	-53.814	-141.619	2.65843	-43.2611	-123.791	-4.19804	-46.7359	-99.6607	-18.5742	-48.7264	-151.206	-14.6504	-36.421	-131.402	-22.7642	-38.823	-112.794	-31.6977	-36.7105	-166.69	-28.251	-26.7055	-150.762	-37.6161	-26.1794	-129.981	-48.3545	-29.0803	-194.946	6.46335	-20.2396	-219.611	11.6698	-3.4975	-198.808	31.7014	-10.0514	
139	1.15833	-177.208	47.0255	13.0306	-148.549	45.8021	12.4472	-127.47	45.6382	8.30791	-111.647	40.6552	3.56948	-136.63	26.537	-37.6032	-115.932	22.0421	-45.0458	-98.4126	21.7311	-49.8566	-137.544	8.51484	-41.2167	-118.571	-2.28797	-44.5192	-91.2241	-14.856	-45.5653	-148.127	-12.2699	-33.5271	-124.472	-19.6367	-35.8798	-106.642	-25.2261	-33.3268	-159.482	-28.1965	-25.4834	-146.644	-34.6111	-24.2287	-125.342	-41.3406	-24.2865	-193.691	4.78192	-22.108	-213.545	8.44663	-6.65777	-193.814	33.6701	-14.3234	
140	1.16667	-178.242	48.1198	13.4009	-153.832	46.9314	17.3645	-130.741	44.2841	8.6463	-112.276	45.1699	6.78146	-136.951	32.7194	-34.2727	-115.011	27.3418	-40.9449	-96.3744	19.2715	-47.9612	-137.228	5.14879	-37.3365	-110.44	1.83382	-40.8128	-87.8006	-11.4489	-42.4042	-143.138	-13.0141	-31.4655	-120.871	-21.5161	-32.1261	-99.9546	-28.1261	-30.2032	-158.71	-29.525	-21.0215	-142.836	-37.1387	-20.3316	-119.619	-39.7958	-21.8378	-190.383	3.98713	-18.387	-214.304	12.2112	-3.78585	-193.191	33.5943	-11.3687	
141	1.175	-182.016	44.5802	12.4065	-154.195	47.4574	14.9297	-129.409	52.9787	10.5419	-112.571	53.8623	8.07965	-135.677	30.7789	-34.8343	-111.99	31.8433	-40.3316	-93.8927	26.2778	-44.8542	-134.607	10.4861	-36.4016	-110.714	2.94728	-39.0502	-89.2192	-6.93001	-38.9155	-140.936	-8.59234	-29.7324	-116.666	-15.8764	-29.9503	-100.581	-18.7101	-27.8596	-151.442	-26.7778	-20.4808	-138.469	-31.5894	-18.5332	-116.983	-38.0763	-20.4231	-187.23	4.50317	-20.3279	-207.823	7.63548	-5.87221	-193.009	28.2461	-14.4496	
142	1.18333	-185.12	47.4213	13.6133	-154.55	54.091	14.8739	-132.367	57.8049	10.6769	-116.556	57.8324	7.92545	-134.321	36.6727	-33.8499	-112.509	30.8827	-39.6512	-91.0271	28.0222	-44.5064	-134.764	9.96566	-33.9058	-108.585	6.10393	-37.4227	-80.9671	0.229751	-37.137	-140.886	-7.37782	-26.5828	-117.523	-12.3497	-27.5127	-92.4539	-15.9154	-25.9474	-148.575	-24.5232	-16.7701	-134.415	-32.3159	-15.8203	-113.3	-37.7936	-17.9261	-187.005	1.11472	-15.4996	-208.355	5.65452	-6.59651	-195.095	27.7016	-10.1717	
143	1.19167	-184.855	47.4389	11.2472	-160.32	53.1917	14.9266	-137.549	57.47	9.3933	-120.715	63.2985	7.32758	-134.303	34.5619	-34.6904	-112.256	39.7611	-39.4235	-92.8433	34.6182	-42.1917	-132.133	12.961	-33.4007	-104.6	13.8004	-36.6718	-78.8951	7.18819	-35.01	-134.204	-6.63886	-26.5971	-110.988	-8.43197	-26.0328	-91.4603	-10.0074	-25.3273	-145.694	-22.2395	-16.4683	-129.021	-28.2285	-13.9215	-109.568	-29.9034	-17.0821	-185.98	-0.0223624	-16.3164	-204.791	0.0433007	-5.25099	-195.979	25.6858	-12.6521	
144	1.2	-186.449	48.5492	11.1828	-162.447	57.0982	15.0005	-140.497	65.3442	9.53889	-122.897	66.3614	6.9186	-138.325	38.8359	-32.8993	-113.648	43.1145	-37.9821	-91.5799	44.0929	-42.7668	-130.462	17.0652	-32.7176	-108.776	19.0353	-36.2017	-79.4715	16.7883	-33.9117	-134.863	-3.429	-25.5709	-112.971	-2.4872	-26.0763	-91.3754	-1.36882	-23.7881	-145.008	-18.1942	-14.1096	-124.279	-22.7957	-14.4957	-105.032	-28.1581	-12.307	-181.687	-2.78281	-17.9028	-207.147	3.27467	-5.82099	-195.618	28.1155	-12.0836	
145	1.20833	-188.541	49.6357	10.6946	-162.796	60.906	12.5395	-141.486	69.2312	8.49221	-123.541	76.59	6.58217	-138.016	41.4311	-32.7776	-116.435	47.548	-37.9867	-91.3556	47.9478	-42.2733	-130.669	21.4958	-32.9758	-107.542	23.4144	-34.2604	-75.2133	20.2017	-32.161	-129.261	2.60002	-25.6073	-108.58	-0.0450938	-25.1879	-88.1494	5.79797	-23.2185	-141.048	-15.2111	-14.4677	-120.944	-17.1819	-14.1529	-100.925	-21.041	-13.3452	-182.448	1.81931	-17.4819	-204.75	-0.705983	-6.21585	-191.671	27.1898	-14.3712	
146	1.21667	-188.637	46.2492	9.63872	-167.165	59.5161	13.3693	-143.668	71.3032	7.98978	-128.092	75.8781	5.71508	-138.96	48.7335	-33.03	-117.468	52.3987	-37.2546	-91.1333	55.8613	-41.8373	-128.929	25.926	-33.5934	-105.878	27.0395	-34.1444	-75.3701	25.9453	-30.9648	-128.343	8.42317	-25.308	-104.031	7.10952	-24.7305	-86.3096	8.96214	-21.3879	-137.206	-14.7235	-13.1088	-115.52	-12.3558	-14.0672	-97.3948	-14.8005	-12.8819	-179.564	3.39345	-16.8877	-202.324	-0.085206	-7.55249	-191.872	25.9528	-14.9989	
147	1.225	-192.362	46.1651	10.6473	-166.576	65.1997	11.1672	-144.568	72.002	5.41717	-131.705	80.7423	4.50989	-137.423	50.7666	-33.9571	-118.254	51.7029	-37.6399	-95.907	60.3889	-42.0618	-126.414	29.2484	-34.0492	-105.315	32.2549	-34.5746	-75.4223	30.3243	-31.4078	-127.532	6.02411	-25.2769	-105.239	12.2519	-24.9978	-84.5683	12.1393	-20.477	-131.767	-10.7649	-14.7452	-112.849	-8.63558	-14.0245	-97.9801	-10.4607	-13.5802	-173.557	0.351408	-17.5263	-200.954	-1.11527	-4.40188	-193.236	28.7522	-14.1054	
148	1.23333	-191.253	49.1873	8.86713	-170.877	62.9056	13.3054	-150.187	76.7403	6.27858	-134.483	81.8321	4.43	-143.07	51.767	-32.7083	-117.783	53.915	-39.1225	-95.8854	60.1226	-42.4101	-126.474	27.874	-33.2539	-105.138	36.3867	-34.6134	-76.0949	37.3498	-31.7879	-130.46	11.5785	-24.2474	-105.682	12.3038	-23.6182	-82.5878	20.727	-21.8278	-129.979	-11.6475	-13.4304	-115.029	-9.15735	-12.0044	-92.6414	-7.72836	-10.5325	-177.769	3.26159	-16.3729	-198.406	-4.19358	-6.80451	-192.571	22.7591	-13.8605	
149	1.24167	-196.038	47.0712	11.6528	-171.505	66.2115	10.3659	-153.376	77.4316	5.93956	-136.345	83.8824	2.60166	-141.984	50.2132	-33.8189	-119.902	59.0847	-38.8394	-98.6497	66.1148	-43.9438	-129.574	29.8932	-33.0719	-102.673	35.9716	-34.0553	-81.0722	39.7818	-31.656	-129.746	10.298	-23.6926	-103.555	19.6565	-24.8978	-85.8196	21.25	-21.2895	-130.798	-8.86953	-12.9014	-111.931	-3.83582	-13.3248	-91.0651	-6.29765	-11.7361	-173.022	3.43681	-17.5818	-199.65	-8.14355	-4.28739	-195.437	24.4078	-14.4608	
150	1.25	-196.931	42.3934	10.6842	-173.128	64.1707	8.78936	-155.741	78.7988	5.53263	-142.6	88.9259	2.95136	-141.698	53.4815	-34.8748	-124.689	60.3666	-38.582	-100.65	65.8284	-43.7762	-127.743	32.3699	-33.9779	-103.801	38.887	-34.4962	-81.9753	45.8204	-32.1379	-124.645	14.9992	-25.5056	-105.383	16.255	-23.1067	-83.65	26.9444	-21.3081	-126.455	-6.57164	-13.4972	-108.777	-2.13011	-11.0282	-93.1011	2.32588	-13.986	-177.334	0.965045	-16.6253	-194.586	-4.2733	-6.32526	-192.992	21.735	-12.6369	
151	1.25833	-194.137	42.6814	6.32318	-175.752	65.1662	8.85297	-158.681	76.7789	3.96248	-143.494	90.4417	0.198449	-146.158	52.9984	-34.506	-125.096	59.3946	-40.1737	-104.053	73.9878	-45.5759	-128.449	37.789	-33.9567	-107.117	42.7938	-34.1167	-81.011	52.1308	-32.4127	-126.685	15.0368	-24.4063	-101.087	23.2143	-22.7845	-83.9661	28.9161	-19.84	-126.284	-6.51455	-12.4987	-111.991	-1.23651	-11.9024	-89.7185	7.87349	-12.0227	-174.033	0.165664	-14.7302	-193.698	-5.34401	-7.55396	-195.084	19.2934	-14.798	
